Jump_normalized_Motion_pl14
version=1
nRows=23
nColumns=43
inDegrees=yes
endheader
time		pelvis_tilt		pelvis_list		pelvis_rotation		pelvis_tx		pelvis_ty		pelvis_tz		hip_flexion_r		hip_adduction_r		hip_rotation_r		knee_angle_r		ankle_angle_r		subtalar_angle_r		mtp_angle_r		hip_flexion_l		hip_adduction_l		hip_rotation_l		knee_angle_l		ankle_angle_l		subtalar_angle_l		mtp_angle_l		lumbar_extension		lumbar_bending		lumbar_rotation		neck_flexion		neck_lateral_bending		neck_rotation		arm_flex_r		arm_add_r		arm_rot_r		elbow_flex_r		pro_sup_r		wrist_flex_r		wrist_dev_r		hand_finger_flex_r		arm_flex_l		arm_add_l		arm_rot_l		elbow_flex_l		pro_sup_l		wrist_flex_l		wrist_dev_l		hand_finger_flex_l		
0.311667		3.369476		-26.222041		85.897216		0.040011		1.847533		1.704378		67.622440		4.146896		-3.104469		-115.827994		23.809423		-3.569961		14.041952		70.426957		-11.277246		-1.847157		-121.755808		14.287812		-0.471347		15.368352		-37.601062		0.875038		4.259359		35.250894		-3.317929		4.603930		111.790966		-14.513963		19.796712		75.655182		96.144655		-5.360323		3.699359		27.563222		113.793352		-26.670360		26.556441		82.470542		85.314876		-8.722232		-2.148312		30.653237		
0.315404		3.271160		-26.182105		85.854947		0.039551		1.850334		1.697697		66.765206		3.943575		-2.925436		-115.272881		23.275167		-3.361922		14.062458		69.672591		-11.239814		-1.999844		-121.233871		13.365339		-0.319564		15.439701		-37.197410		0.871990		4.178934		34.319118		-3.390319		4.668206		112.222703		-14.428111		19.992939		75.411832		96.076835		-5.158534		3.766191		27.438130		114.221836		-26.542218		26.813120		82.205073		85.244168		-8.725596		-2.144717		30.640417		
0.319141		3.173001		-26.237713		85.817390		0.039198		1.853199		1.691000		65.978774		3.777472		-2.771943		-114.672628		22.996989		-3.269405		14.087580		69.018184		-11.214959		-2.161379		-120.649000		12.620746		-0.261223		15.501729		-36.764633		0.858464		4.107549		33.907868		-3.398244		4.663213		112.591600		-14.298148		20.025549		75.290154		96.025872		-4.994163		3.762788		27.313506		114.601459		-26.397024		26.938392		82.035712		85.129807		-8.760191		-2.198700		30.614206		
0.322879		3.036048		-26.152691		85.781845		0.038725		1.856055		1.684134		65.121452		3.541299		-2.564569		-114.161422		22.444488		-3.151729		14.033320		68.236621		-11.142970		-2.340243		-120.048643		11.509422		-0.140638		15.546134		-36.419733		0.813376		4.016379		33.018930		-3.429462		4.672130		112.946788		-14.215782		20.118791		75.111658		96.103367		-4.767479		3.805959		27.199862		114.987153		-26.229412		27.174832		81.762271		85.004349		-8.778767		-2.214385		30.586063		
0.326616		2.804356		-25.954128		85.685975		0.038301		1.859101		1.677017		64.105584		3.285090		-2.260402		-113.584816		21.930585		-3.141296		13.940321		67.353856		-11.022042		-2.610993		-119.502161		10.171809		-0.233150		15.633737		-36.205787		0.645573		3.871590		32.416804		-3.377236		4.603026		113.230580		-14.126418		20.112031		74.977431		96.327947		-4.468484		3.792517		26.979185		115.392162		-26.052080		27.438474		81.419149		84.768284		-8.843835		-2.315762		30.539835		
0.330354		2.514338		-25.773424		85.530848		0.037969		1.862221		1.669945		63.152599		3.054738		-1.903677		-113.041508		21.471006		-3.246957		13.726427		66.471676		-10.918613		-2.979256		-118.843910		8.793666		-0.595153		15.808148		-36.019226		0.389583		3.721454		32.013298		-3.255092		4.511266		113.466791		-13.979006		19.933978		74.918040		96.888928		-4.093349		3.722988		26.593571		115.843146		-25.874483		27.729943		81.109582		84.481729		-8.964308		-2.477049		30.498879		
0.334091		2.442520		-25.818084		85.507607		0.037597		1.864671		1.663019		62.504554		2.913775		-1.724799		-112.543244		20.681587		-3.096280		13.546959		65.958481		-10.894164		-3.044580		-118.311134		7.825300		-0.430940		15.844090		-35.504310		0.390633		3.670140		31.154057		-3.284896		4.536859		113.628167		-13.847638		19.982395		74.795761		97.156704		-3.974335		3.780581		26.507001		116.062661		-25.735476		27.915433		80.842440		84.491152		-8.986774		-2.402763		30.498185		
0.337828		2.248502		-25.679830		85.399597		0.037372		1.867575		1.655925		61.659154		2.767676		-1.462728		-112.010380		19.920492		-3.348195		13.185590		65.291683		-10.840668		-3.224200		-117.722578		5.911268		-0.565678		15.925239		-35.245547		0.223350		3.545571		30.613011		-3.197895		4.455397		113.764874		-13.606649		19.747067		74.680140		97.959830		-3.745721		3.742879		26.364445		116.348036		-25.532516		28.039653		80.524408		84.557035		-9.096783		-2.400006		30.505846		
0.341566		2.135124		-25.620702		85.349064		0.037069		1.870203		1.648888		60.958616		2.654025		-1.246515		-111.527782		18.934917		-3.354896		12.831242		64.765342		-10.812269		-3.321503		-117.157947		4.333358		-0.577438		15.976381		-34.874238		0.171404		3.445691		29.865745		-3.208181		4.467317		113.902678		-13.372000		19.627117		74.502715		98.635547		-3.475974		3.726922		26.318223		116.550919		-25.395467		28.176896		80.229913		84.717971		-9.176057		-2.330005		30.520355		
0.345303		2.038976		-25.568944		85.320100		0.036789		1.872800		1.641837		60.281116		2.546712		-1.063251		-111.039390		17.902547		-3.414120		12.508939		64.303484		-10.788618		-3.370687		-116.588418		2.625903		-0.521417		15.974353		-34.512342		0.137889		3.350194		29.166753		-3.250359		4.475470		114.063887		-13.206835		19.579042		74.351354		99.238634		-3.239384		3.702619		26.315993		116.720825		-25.263103		28.281284		79.961626		84.941348		-9.260057		-2.239512		30.510486		
0.349040		1.950617		-25.519467		85.313540		0.036523		1.875338		1.634771		59.632469		2.435795		-0.907900		-110.563001		16.797520		-3.504633		12.208337		63.898762		-10.755879		-3.386709		-116.010434		0.855908		-0.430238		15.924107		-34.158497		0.115594		3.251849		28.472363		-3.312652		4.476315		114.255206		-13.120752		19.641852		74.209151		99.780532		-3.023976		3.682513		26.323013		116.860110		-25.125151		28.362935		79.704033		85.225521		-9.351919		-2.128881		30.471643		
0.352778		1.892726		-25.506384		85.339348		0.036214		1.877714		1.627581		59.039088		2.316343		-0.777224		-110.112153		15.650325		-3.439737		11.973962		63.536601		-10.744013		-3.381265		-115.418403		-0.563589		-0.207154		15.871482		-33.748535		0.137975		3.158923		27.704616		-3.395130		4.499860		114.400351		-13.134868		19.847454		74.162665		100.112508		-2.864034		3.702992		26.333813		116.943438		-25.053895		28.492168		79.499621		85.456644		-9.392081		-2.006592		30.442139		
0.356515		1.804063		-25.441375		85.363800		0.035934		1.880083		1.620483		58.435254		2.183256		-0.655851		-109.668758		14.426605		-3.623768		11.694196		63.208508		-10.705478		-3.362299		-114.826832		-2.508057		0.073032		15.798075		-33.419887		0.115876		3.056194		27.038327		-3.448955		4.454589		114.586260		-13.107351		19.990908		74.018194		100.544569		-2.756007		3.737488		26.297624		117.027139		-24.871264		28.524413		79.215476		85.807562		-9.509212		-1.854477		30.374514		
0.360253		1.712470		-25.369826		85.392740		0.035651		1.882422		1.613374		57.846758		2.063885		-0.532119		-109.228642		13.129014		-3.917214		11.397438		62.932697		-10.667199		-3.322154		-114.216064		-4.580178		0.540684		15.773920		-33.108766		0.086569		2.947615		26.380135		-3.477769		4.397349		114.702668		-13.010105		20.029052		73.889587		101.010303		-2.689933		3.812713		26.234790		117.081681		-24.675712		28.522525		78.954278		86.211494		-9.622692		-1.685801		30.317757		
0.363990		1.672610		-25.304798		85.425848		0.035323		1.884586		1.606228		57.344757		1.962121		-0.404301		-108.851031		11.631484		-3.816918		11.139811		62.645796		-10.672151		-3.258371		-113.591595		-6.075220		1.093382		15.801586		-32.765401		0.104054		2.845232		25.539641		-3.517036		4.405220		114.738701		-12.849624		20.058787		73.743522		101.307936		-2.635306		3.929345		26.206594		117.121229		-24.560774		28.618555		78.665534		86.456723		-9.661275		-1.525549		30.297498		
0.367727		1.601086		-25.239242		85.430907		0.035202		1.886841		1.599178		56.847890		1.944420		-0.303769		-108.421319		10.141478		-4.521623		10.787620		62.448769		-10.690397		-3.161785		-112.898262		-8.383730		1.878260		16.031146		-32.488283		0.049485		2.716791		25.009409		-3.464251		4.365401		114.699844		-12.523640		19.743527		73.637221		102.037911		-2.545860		4.051835		26.149017		117.169360		-24.393951		28.587304		78.439127		86.964723		-9.759931		-1.347948		30.262831		
0.371465		1.589284		-25.164780		85.452017		0.034959		1.888932		1.592135		56.429851		1.925357		-0.154942		-108.042067		8.363018		-4.425933		10.497390		62.225336		-10.712258		-3.042179		-112.220258		-9.742664		2.486654		16.200689		-32.195421		0.065266		2.615666		24.244990		-3.459404		4.382514		114.678788		-12.246523		19.621007		73.460122		102.397138		-2.473929		4.162427		26.129475		117.198663		-24.296216		28.660953		78.146600		87.195321		-9.794977		-1.209830		30.242426		
0.375202		1.556045		-25.128800		85.428742		0.035046		1.891084		1.585273		56.073058		2.036171		-0.076824		-107.624859		6.532338		-5.562957		10.094069		62.105440		-10.822583		-2.932179		-111.429444		-11.815677		3.324172		16.851822		-31.946483		0.001584		2.507209		23.838751		-3.357206		4.408156		114.612410		-11.813937		19.131568		73.342740		103.375877		-2.257018		4.227686		26.095401		117.261091		-24.176356		28.650392		77.967413		87.739981		-9.890209		-1.078493		30.175918		
0.378939		1.615392		-25.084192		85.487378		0.035022		1.893036		1.578357		55.747396		2.186288		0.030670		-107.221294		4.506264		-5.957798		9.764555		61.963174		-10.908485		-2.794613		-110.706832		-12.676419		3.639117		17.746719		-31.684639		0.054222		2.394271		23.303506		-3.288525		4.446830		114.558807		-11.479677		18.850901		73.186616		104.194002		-1.939257		4.217525		26.047895		117.283150		-24.088246		28.667877		77.719506		88.148355		-9.927830		-0.972923		30.104237		
0.382677		1.630522		-25.028270		85.557428		0.034854		1.894927		1.571529		55.437873		2.253298		0.200827		-106.852262		2.631120		-5.850828		9.524145		61.804294		-10.954135		-2.755600		-109.958858		-13.037076		3.754066		18.066877		-31.472583		0.078557		2.264696		22.829040		-3.217730		4.460075		114.624111		-11.273230		18.791326		73.000178		104.465002		-1.896567		4.268163		25.991057		117.319330		-23.979003		28.706520		77.496421		88.291928		-9.982975		-0.905426		30.041489		
0.386414		1.631581		-24.938539		85.583941		0.034809		1.896851		1.564704		55.140866		2.363069		0.359618		-106.427944		0.610707		-6.124410		9.316358		61.621969		-11.009446		-2.789260		-109.240252		-12.967563		3.543256		18.422466		-31.325402		0.057715		2.117451		22.478631		-3.117774		4.483041		114.643964		-11.063112		18.732242		72.874885		104.826211		-1.884336		4.300184		25.913109		117.350221		-23.880247		28.721195		77.276732		88.480903		-10.079269		-0.851041		29.939667		
0.390152		1.573186		-24.771386		85.477976		0.035079		1.898883		1.557771		54.759742		2.556827		0.499523		-105.957564		-1.624300		-7.539660		9.505579		61.267476		-11.170280		-3.075723		-108.511870		-12.212634		2.625234		19.266730		-31.294354		-0.092663		2.033281		22.315874		-2.991897		4.535594		114.618928		-10.828564		18.574830		72.827617		105.624873		-1.834745		4.239921		25.727609		117.385543		-23.773483		28.699294		77.067446		88.862520		-10.227889		-0.813756		29.692315		
0.393889		1.520903		-24.645363		85.495269		0.035043		1.900752		1.550971		54.464178		2.617759		0.744977		-105.492637		-3.930451		-7.767615		13.536955		61.043817		-11.181893		-3.283601		-107.784097		-11.559140		1.714313		22.061602		-31.238820		-0.188964		1.855964		22.082562		-2.825046		4.583005		114.560243		-10.621286		18.303331		72.799366		106.412858		-1.286962		4.010418		25.185565		117.418539		-23.636253		28.660781		76.854217		89.104919		-9.910639		-0.779377		29.010369		
